# xmcd CD database file
#
# Track frame offsets:
#	150
#	38447
#	79132
#	110027
#	141301
#	178461
#	213779
#	251892
#	291128
#	319622
#
# Disc length: 4484 seconds
#
# Revision: 1
# Processed by: cddbd v1.5.2PL0 Copyright (c) Steve Scherf et al.
# Submitted via: CDex 1.51
#
DISCID=9411820a
DTITLE=Simon Spillet - Sienna Red
DYEAR=2009
DGENRE=Jazz
TTITLE0=MiniMinor
TTITLE1=Lifeline
TTITLE2=Souriya
TTITLE3=PeacePipe
TTITLE4=Rumpus
TTITLE5=Recardo
TTITLE6=PintOfBitter
TTITLE7=RightToLove
TTITLE8=SiennaRed
TTITLE9=Oleo
EXTD=YEAR: 2009
EXTT0=
EXTT1=
EXTT2=
EXTT3=
EXTT4=
EXTT5=
EXTT6=
EXTT7=
EXTT8=
EXTT9=
PLAYORDER=
